<svg version="1.1" id="Layer_1" xmlns="http://www.w3.org/2000/svg" xmlns:xlink="http://www.w3.org/1999/xlink" x="0px" y="0px"
	 width="100%" viewBox="0 0 496 496" enable-background="new 0 0 496 496" xml:space="preserve">
<path fill="#000000" opacity="1.000000" stroke="none" 
	d="
M140.068604,171.347961 
	C144.664734,172.013229 144.254044,175.446732 144.110275,178.286972 
	C143.479706,190.744186 142.878922,203.213348 141.746124,215.630630 
	C141.109909,222.604691 141.154465,229.593475 140.745453,236.561996 
	C140.105988,247.456635 138.902725,258.378632 139.447006,270.281006 
	C143.033051,266.410278 144.287506,262.299194 145.716980,258.395447 
	C152.469955,239.953644 158.963791,221.416779 165.747620,202.986557 
	C169.603363,192.511307 173.960281,182.230469 179.840317,172.681412 
	C182.205292,168.840744 184.713684,165.056610 188.393661,162.350052 
	C193.494690,158.598343 198.215881,160.420212 199.381821,166.636551 
	C201.240738,176.547546 200.484375,186.557785 199.841263,196.504761 
	C198.876236,211.430679 197.725052,226.351761 196.260956,241.236359 
	C194.436432,259.785004 193.708450,278.398193 192.525955,296.983643 
	C192.114090,303.456940 192.376556,309.972229 192.292953,316.467896 
	C192.267349,318.458252 192.444672,320.942596 189.642090,320.969574 
	C186.989868,320.995117 186.698853,318.657532 186.711258,316.587921 
	C186.835892,295.792175 186.092804,274.996338 188.412094,254.229218 
	C190.034439,239.702728 190.610580,225.060562 191.714279,210.474625 
	C192.630219,198.370193 194.025146,186.295044 193.668869,174.120468 
	C193.595856,171.625473 193.546722,169.169449 191.935287,166.668243 
	C188.903015,167.729477 187.630829,170.299011 186.266464,172.660431 
	C177.230774,188.299255 170.991638,205.199051 164.388763,221.913345 
	C157.845612,238.476517 151.757553,255.219162 145.404190,271.857971 
	C144.398315,274.492249 143.156525,277.053711 141.820419,279.539490 
	C140.637222,281.740753 138.790802,283.160431 136.093460,282.511963 
	C133.452728,281.877106 133.003418,279.629333 132.949249,277.429352 
	C132.855026,273.602905 132.893570,269.765991 133.062607,265.941681 
	C133.547531,254.971909 134.102127,244.005035 134.672424,233.039261 
	C135.674301,213.775055 136.711700,194.512726 137.722183,175.248978 
	C137.804840,173.673172 138.162964,172.282990 140.068604,171.347961 
z"/>
<path fill="#000000" opacity="1.000000" stroke="none" 
	d="
M253.629486,247.972443 
	C251.278381,249.567993 248.828308,249.365402 246.584427,249.920883 
	C244.205292,250.509857 241.004135,250.237335 241.619492,253.946869 
	C242.146469,257.123657 244.408035,260.106903 247.707504,259.394562 
	C255.305664,257.754150 262.975494,255.650024 267.201477,248.026230 
	C270.135040,242.734024 276.012848,239.776505 281.913818,240.812286 
	C284.106995,241.197250 286.487305,241.877716 286.695435,244.451752 
	C286.924164,247.280945 284.501587,248.359833 282.245667,249.092072 
	C280.677643,249.600983 278.992371,249.771942 277.348022,250.016815 
	C275.041992,250.360245 272.165833,250.307144 272.586517,253.685730 
	C272.988922,256.917847 275.037415,259.246948 278.482025,259.517792 
	C284.334625,259.977936 295.503540,252.766525 297.793884,247.260483 
	C298.831390,244.766327 300.711029,245.099808 303.778778,248.322296 
	C310.006378,240.869995 310.006378,240.869995 315.220093,243.828476 
	C316.597809,242.836975 317.960449,241.624725 319.522980,240.783905 
	C322.132385,239.379700 325.043030,238.868866 327.594086,240.618805 
	C330.040222,242.296753 330.220154,245.149445 329.878082,247.858734 
	C329.445160,251.287598 328.652893,254.689423 329.935394,258.350891 
	C335.569092,258.427460 337.342529,251.781418 342.526428,251.178268 
	C341.598114,256.522583 333.968597,263.279083 329.034149,263.344635 
	C324.821411,263.400604 322.871063,260.892822 322.766388,255.566574 
	C322.699097,252.143402 324.661133,248.771835 322.917725,244.884918 
	C319.681702,245.911255 319.406799,249.024292 318.088562,251.271866 
	C317.920868,251.557755 317.835052,251.891541 317.668091,252.177963 
	C316.184448,254.723282 316.467957,259.513000 312.291199,258.855164 
	C307.897247,258.163086 310.528473,253.501877 309.177368,250.396698 
	C307.262115,252.392609 306.703918,254.942215 305.574127,257.163544 
	C304.415405,259.441681 303.947693,262.796875 300.480255,262.476135 
	C297.006805,262.154816 298.185333,258.592407 297.138519,256.289062 
	C286.687683,261.178497 276.269501,270.787445 265.450348,256.727875 
	C255.722321,260.891174 246.127838,270.103119 235.311111,258.066895 
	C232.487457,259.794098 229.602463,261.790497 226.056976,262.133362 
	C222.284042,262.498230 219.657288,260.870300 217.929871,256.820709 
	C215.527878,259.466980 213.899658,262.465576 210.520081,263.520142 
	C207.391281,264.496460 204.541245,264.422546 202.084915,262.243774 
	C199.750000,260.172668 199.410248,257.436310 200.084076,254.444809 
	C202.002441,245.927963 208.237411,241.400940 216.719101,242.464523 
	C217.049362,242.505920 217.377426,242.587906 217.708221,242.598572 
	C224.808472,242.827499 224.762451,242.823761 224.383331,250.380295 
	C224.251816,253.001587 223.730453,256.182404 226.949097,257.257080 
	C229.725159,258.183960 231.441589,255.662430 233.202911,253.957260 
	C234.681427,252.525864 235.135086,250.500870 235.961212,248.686371 
	C238.646378,242.788818 245.697571,239.369843 251.709412,240.966064 
	C255.688766,242.022629 256.376038,244.104446 253.629486,247.972443 
M209.105606,258.885803 
	C213.435211,256.214447 215.526001,252.098679 217.158264,247.432968 
	C212.946930,245.242126 210.279297,247.117188 208.895187,250.067474 
	C207.642670,252.737305 203.903397,255.857513 209.105606,258.885803 
z"/>
<path fill="#000000" opacity="1.000000" stroke="none" 
	d="
M308.214355,302.815674 
	C306.060394,306.810913 305.385590,304.081482 305.286316,302.348694 
	C305.033875,297.942444 304.866699,293.488464 305.983154,288.929443 
	C309.768951,290.347412 310.093140,294.864410 313.530823,296.175293 
	C316.777466,294.664337 316.951691,290.399323 320.855438,288.635223 
	C321.594116,294.232422 321.588135,299.393219 320.774689,305.547699 
	C317.361511,302.528534 319.565704,299.190338 318.240662,296.540833 
	C315.975342,297.289429 315.865295,300.539764 312.527985,300.998749 
	C311.807220,299.912567 310.806885,298.405060 309.563202,296.530823 
	C307.813873,298.895355 308.473114,300.746094 308.214355,302.815674 
z"/>
<path fill="#000000" opacity="1.000000" stroke="none" 
	d="
M296.682861,302.234650 
	C292.596191,299.441559 291.353546,304.449432 287.643433,305.090057 
	C289.257294,299.079620 291.255798,293.869690 294.269043,288.716156 
	C297.004486,293.818848 299.354614,298.867462 300.555786,304.389801 
	C297.883362,305.602081 297.854187,303.353912 296.682861,302.234650 
z"/>
<path fill="#000000" opacity="1.000000" stroke="none" 
	d="
M269.025879,303.791138 
	C263.739624,306.600800 261.655701,306.054657 260.013397,301.686920 
	C262.221893,300.366150 265.043152,304.983582 266.992004,300.854095 
	C266.826080,298.493530 264.427216,298.257294 262.900604,297.182983 
	C261.075012,295.898254 260.192963,294.281403 260.566376,292.073578 
	C260.877350,290.234955 262.009094,289.020905 263.834320,288.765228 
	C266.196716,288.434326 268.484924,288.541473 269.443451,291.299500 
	C267.765961,293.701935 265.478760,290.076904 263.588043,292.773956 
	C264.390015,296.599396 273.269104,297.019379 269.025879,303.791138 
z"/>
<path fill="#000000" opacity="1.000000" stroke="none" 
	d="
M274.714539,292.461914 
	C274.942688,290.970917 274.568939,289.586212 276.348694,289.286621 
	C278.274689,290.546082 277.338562,292.532867 277.381836,294.204712 
	C277.494598,298.559052 275.903351,303.850983 284.349823,303.134552 
	C281.275146,306.370453 278.493652,305.581879 276.235199,305.041229 
	C273.561615,304.401245 274.852081,301.713196 274.734406,299.882507 
	C274.585266,297.561768 274.700439,295.223999 274.714539,292.461914 
z"/>
<path fill="#000000" opacity="1.000000" stroke="none" 
	d="
M252.423615,289.840088 
	C253.316986,289.164490 254.234039,289.067444 254.388519,289.729675 
	C255.576889,294.824524 255.586273,299.886322 253.440918,304.879761 
	C251.280457,300.100311 251.713028,295.146210 252.423615,289.840088 
z"/>
</svg>